# File produced by Open Asset Import Library (http://www.assimp.sf.net)
# (assimp v3.1.22885447)

mtllib mirror.mtl

# vertex positions
v -62.160301 115.509247 83.875465
v -58.783611 115.509247 83.875465
v -58.783611 178.419342 83.875465
v -62.160301 178.419342 83.875465
v -58.783611 178.419342 34.005032
v -62.160301 178.419342 34.005032
v -58.783611 115.509247 34.005032
v -62.160301 115.509247 34.005032
v -59.671761 118.177544 37.289833
v -59.671761 118.177544 80.590660
v -59.671761 175.751038 80.590660
v -59.671761 175.751038 37.289833
v -62.160301 118.177544 80.590660
v -62.160301 118.177544 37.289833
v -62.160301 175.751038 80.590660
v -62.160301 175.751038 37.289833

# UV coordinates
vt 0.000000 0.574023
vt 0.287011 0.574023
vt 0.287011 0.861034
vt 0.000000 0.861034
vt 0.000000 0.287011
vt 0.000001 0.000000
vt 0.287012 0.000001
vt 0.287011 0.287012
vt 0.287162 0.000001
vt 0.574173 0.000000
vt 0.574174 0.287011
vt 0.287163 0.287011
vt 0.287162 0.574022
vt 0.574173 0.287012
vt 0.574173 0.574022
vt 0.000000 0.287012
vt 0.000001 0.574023
vt 0.574325 0.000000
vt 0.823527 0.000000
vt 0.823527 0.262664
vt 0.574325 0.262664
vt 0.555269 0.586196
vt 0.306067 0.586196
vt 0.574173 0.861033
vt 0.555269 0.848860
vt 0.287163 0.861033
vt 0.306067 0.848860
vt 0.306631 0.835398
vt 0.306632 0.586196
vt 0.518152 0.586196
vt 0.518151 0.835398
vt 0.574325 0.525328
vt 0.785845 0.262664
vt 0.785845 0.525328
vt 0.788480 0.511866
vt 0.788480 0.262664
vt 1.000000 0.262664
vt 1.000000 0.511866
vt 0.647332 0.787992
vt 0.647332 0.525328
vt 0.858852 0.525328
vt 0.858852 0.787992

# vertex normals
vn 0.000000 0.000000 1.000000
vn 0.000000 1.000000 0.000000
vn 0.000000 0.000000 -1.000000
vn 0.000000 -1.000000 0.000000
vn 1.000000 0.000000 0.000000
vn -1.000000 0.000000 0.000000

# Mesh
g pCube148
usemtl initialShadingGroup
f 4/4/1 1/1/1 2/2/1
f 2/2/1 3/3/1 4/4/1
f 6/8/2 4/5/2 3/6/2
f 3/6/2 5/7/2 6/8/2
f 8/12/3 6/9/3 5/10/3
f 5/10/3 7/11/3 8/12/3
f 1/15/4 8/13/4 7/12/4
f 7/12/4 2/14/4 1/15/4
f 3/17/5 2/16/5 7/8/5
f 7/8/5 5/2/5 3/17/5
f 12/21/6 9/18/6 10/19/6
f 10/19/6 11/20/6 12/21/6
f 14/23/6 8/13/6 1/15/6
f 1/15/6 13/22/6 14/23/6
f 13/22/6 1/15/6 4/24/6
f 4/24/6 15/25/6 13/22/6
f 15/25/6 4/24/6 6/26/6
f 6/26/6 16/27/6 15/25/6
f 16/27/6 6/26/6 8/13/6
f 8/13/6 14/23/6 16/27/6
f 9/31/2 14/28/2 13/29/2
f 13/29/2 10/30/2 9/31/2
f 10/34/3 13/32/3 15/21/3
f 15/21/3 11/33/3 10/34/3
f 11/38/4 15/35/4 16/36/4
f 16/36/4 12/37/4 11/38/4
f 12/42/1 16/39/1 14/40/1
f 14/40/1 9/41/1 12/42/1
